<?xml version="1.0" standalone="no"?>
<!DOCTYPE svg PUBLIC "-//W3C//DTD SVG 20010904//EN"
 "http://www.w3.org/TR/2001/REC-SVG-20010904/DTD/svg10.dtd">
<svg version="1.0" xmlns="http://www.w3.org/2000/svg"
 width="16.000000pt" height="16.000000pt" viewBox="0 0 16.000000 16.000000"
 preserveAspectRatio="xMidYMid meet">
<metadata>
Created by potrace 1.11, written by Peter Selinger 2001-2013
</metadata>
<g transform="translate(0.000000,16.000000) scale(0.006667,-0.006667)"
fill="#000000" stroke="none">
<path d="M906 2206 c-78 -29 -128 -88 -141 -167 -24 -140 122 -268 262 -230
146 39 205 197 120 322 -47 69 -161 105 -241 75z"/>
<path d="M1185 1778 c-148 -52 -191 -228 -81 -334 90 -86 223 -82 303 9 99
113 45 286 -102 326 -48 13 -80 13 -120 -1z"/>
<path d="M1435 1368 c-82 -29 -145 -119 -145 -209 0 -65 43 -146 98 -184 39
-27 52 -30 117 -30 65 0 78 3 117 30 115 81 131 242 35 339 -60 60 -146 81
-222 54z"/>
<path d="M945 1348 c-82 -29 -145 -119 -145 -209 0 -65 43 -146 98 -184 39
-27 52 -30 117 -30 65 0 78 3 117 30 55 38 98 119 98 184 0 149 -148 257 -285
209z"/>
<path d="M1705 938 c-82 -29 -145 -119 -145 -209 0 -65 43 -146 98 -184 39
-27 52 -30 117 -30 65 0 78 3 117 30 56 39 98 119 98 187 0 146 -149 254 -285
206z"/>
<path d="M1246 918 c-102 -15 -186 -114 -186 -218 0 -66 43 -147 98 -185 39
-27 52 -30 117 -30 65 0 78 3 117 30 55 38 98 119 98 184 0 131 -120 238 -244
219z"/>
<path d="M705 908 c-82 -29 -145 -119 -145 -209 0 -65 43 -146 98 -184 39 -27
52 -30 117 -30 65 0 78 3 117 30 55 38 98 119 98 184 0 149 -148 257 -285 209z"/>
<path d="M1465 498 c-82 -29 -145 -119 -145 -209 0 -65 43 -146 98 -184 64
-44 170 -44 234 0 55 38 98 119 98 184 0 149 -148 257 -285 209z"/>
<path d="M975 488 c-82 -29 -145 -119 -145 -209 0 -65 43 -146 98 -184 39 -27
52 -30 117 -30 65 0 78 3 117 30 55 38 98 119 98 184 0 149 -148 257 -285 209z"/>
</g>
</svg>
